<?xml version="1.0" standalone="no"?>
<!DOCTYPE svg PUBLIC "-//W3C//DTD SVG 20010904//EN"
 "http://www.w3.org/TR/2001/REC-SVG-20010904/DTD/svg10.dtd">
<svg version="1.0" xmlns="http://www.w3.org/2000/svg"
 width="512.000000pt" height="512.000000pt" viewBox="0 0 512.000000 512.000000"
 preserveAspectRatio="xMidYMid meet">
<metadata>
Created by potrace 1.14, written by Peter Selinger 2001-2017
</metadata>
<g transform="translate(0.000000,512.000000) scale(0.100000,-0.100000)"
fill="#000000" stroke="none">
<path d="M0 2560 l0 -2560 2560 0 2560 0 0 2560 0 2560 -2560 0 -2560 0 0
-2560z m4540 1471 l0 -510 -98 -119 c-53 -65 -401 -486 -772 -936 -371 -450
-676 -822 -678 -827 -2 -5 302 -9 772 -9 l776 0 0 -525 0 -525 -1980 0 -1980
0 0 1980 0 1980 1980 0 1980 0 0 -509z"/>
<path d="M1600 2578 c0 -542 4 -938 9 -932 19 21 1529 1852 1535 1863 5 8
-194 11 -768 11 l-776 0 0 -942z"/>
</g>
</svg>
